<svg id="Layer_1" data-name="Layer 1" xmlns="http://www.w3.org/2000/svg" width="381.18" height="106.91" viewBox="0 0 381.18 106.91">
  <title>SWH_Logo_WT_RGB</title>
  <g>
    <path d="M34.05,79.45a11.91,11.91,0,0,1-4.65,10Q24.76,93,16.79,93,8.15,93,3.51,90.81V85.36a34.86,34.86,0,0,0,6.51,2,34.21,34.21,0,0,0,7,.73q5.64,0,8.5-2.14a7,7,0,0,0,2.86-6,7.65,7.65,0,0,0-1-4.13,9.42,9.42,0,0,0-3.39-3,47.47,47.47,0,0,0-7.22-3.09Q9.95,67.37,7,64a12.68,12.68,0,0,1-2.91-8.67,10.78,10.78,0,0,1,4.22-8.93q4.22-3.32,11.16-3.32a32.88,32.88,0,0,1,13.31,2.66L31.07,50.7a30.1,30.1,0,0,0-11.69-2.52,11.31,11.31,0,0,0-7,1.93,6.35,6.35,0,0,0-2.52,5.35,8.19,8.19,0,0,0,.93,4.13,8.75,8.75,0,0,0,3.14,3,38.92,38.92,0,0,0,6.76,3q7.64,2.72,10.51,5.84A11.49,11.49,0,0,1,34.05,79.45Z" transform="translate(-3.51 -1.8)" fill="#fff"/>
    <path d="M70.67,92.37L64,71q-0.63-2-2.36-8.9H61.37q-1.33,5.81-2.32,9L52.18,92.37H45.8L35.87,56h5.78L47,76.86a84.65,84.65,0,0,1,2.11,9.66h0.27q0.36-1.89,1.18-4.9T52,76.86L58.65,56h6l6.51,20.88a70.57,70.57,0,0,1,2.52,9.6h0.27a35.06,35.06,0,0,1,.71-3.69Q75.22,80.28,81.56,56h5.71L77.21,92.37H70.67Z" transform="translate(-3.51 -1.8)" fill="#fff"/>
    <path d="M114.51,92.37l-1.1-5.18h-0.27a15.31,15.31,0,0,1-5.43,4.63A16.56,16.56,0,0,1,101,93q-5.41,0-8.48-2.79t-3.07-7.94q0-11,17.63-11.55l6.18-.2V68.3q0-4.28-1.84-6.33t-5.89-2a24,24,0,0,0-10.29,2.79L93.49,58.5a25.92,25.92,0,0,1,5.89-2.29,25.55,25.55,0,0,1,6.42-.83q6.51,0,9.65,2.89t3.14,9.26V92.37h-4.08Zm-12.45-3.88q5.15,0,8.08-2.82t2.94-7.9V74.47l-5.51.23q-6.57.23-9.48,2a6.16,6.16,0,0,0-2.91,5.63A5.68,5.68,0,0,0,97,86.92,7.51,7.51,0,0,0,102.06,88.48Z" transform="translate(-3.51 -1.8)" fill="#fff"/>
    <path d="M158,56v3.49l-6.74.8a11.84,11.84,0,0,1,2.39,7.27A10.76,10.76,0,0,1,150,76.07q-3.65,3.19-10,3.19A16.63,16.63,0,0,1,136.9,79q-3.52,1.86-3.52,4.68a2.38,2.38,0,0,0,1.23,2.21,9,9,0,0,0,4.22.71h6.44q5.91,0,9.08,2.49a8.65,8.65,0,0,1,3.17,7.24,10.33,10.33,0,0,1-4.85,9.21q-4.85,3.17-14.14,3.17-7.14,0-11-2.66a8.58,8.58,0,0,1-3.87-7.5,8.42,8.42,0,0,1,2.13-5.74,10.82,10.82,0,0,1,6-3.29,5.76,5.76,0,0,1-2.34-2,5.18,5.18,0,0,1-.95-3.09A5.86,5.86,0,0,1,129.53,81a11.17,11.17,0,0,1,3.35-2.89,9.82,9.82,0,0,1-4.6-4,11.61,11.61,0,0,1-1.78-6.37q0-6,3.59-9.21t10.16-3.24a18.49,18.49,0,0,1,5.15.66H158Zm-29,42.5a4.94,4.94,0,0,0,2.49,4.48,13.75,13.75,0,0,0,7.14,1.53q6.94,0,10.28-2.08a6.35,6.35,0,0,0,3.34-5.63q0-3-1.83-4.1t-6.87-1.15H136.9a8.7,8.7,0,0,0-5.84,1.79A6.41,6.41,0,0,0,129,98.48Zm3-30.85a7.41,7.41,0,0,0,2.16,5.78,8.61,8.61,0,0,0,6,2q8.07,0,8.07-7.84,0-8.2-8.17-8.2a8.09,8.09,0,0,0-6,2.09Q132,63.52,132,67.63Z" transform="translate(-3.51 -1.8)" fill="#fff"/>
    <path d="M196.23,56v3.49l-6.74.8a11.84,11.84,0,0,1,2.39,7.27,10.76,10.76,0,0,1-3.65,8.53q-3.65,3.19-10,3.19a16.63,16.63,0,0,1-3.05-.27q-3.52,1.86-3.52,4.68a2.38,2.38,0,0,0,1.23,2.21,9,9,0,0,0,4.22.71h6.44q5.91,0,9.08,2.49a8.65,8.65,0,0,1,3.17,7.24,10.33,10.33,0,0,1-4.85,9.21q-4.85,3.17-14.14,3.17-7.14,0-11-2.66a8.58,8.58,0,0,1-3.87-7.5A8.42,8.42,0,0,1,164,92.8a10.82,10.82,0,0,1,6-3.29,5.76,5.76,0,0,1-2.34-2,5.18,5.18,0,0,1-.95-3.09A5.86,5.86,0,0,1,167.78,81a11.17,11.17,0,0,1,3.35-2.89,9.82,9.82,0,0,1-4.6-4,11.61,11.61,0,0,1-1.78-6.37q0-6,3.59-9.21t10.16-3.24a18.49,18.49,0,0,1,5.15.66h12.58Zm-29,42.5A4.94,4.94,0,0,0,169.7,103a13.75,13.75,0,0,0,7.14,1.53q6.94,0,10.28-2.08a6.35,6.35,0,0,0,3.34-5.63q0-3-1.83-4.1t-6.87-1.15h-6.61a8.7,8.7,0,0,0-5.84,1.79A6.41,6.41,0,0,0,167.21,98.48Zm3-30.85a7.41,7.41,0,0,0,2.16,5.78,8.61,8.61,0,0,0,6,2q8.07,0,8.07-7.84,0-8.2-8.17-8.2a8.09,8.09,0,0,0-6,2.09Q170.2,63.52,170.2,67.63Z" transform="translate(-3.51 -1.8)" fill="#fff"/>
    <path d="M216.54,93q-8.07,0-12.73-4.91t-4.67-13.65q0-8.8,4.33-14a14.39,14.39,0,0,1,11.64-5.18q6.84,0,10.82,4.5t4,11.87v3.49H204.85q0.17,6.41,3.24,9.73t8.65,3.32a29.3,29.3,0,0,0,11.62-2.46v4.91a29.14,29.14,0,0,1-5.53,1.81A31.07,31.07,0,0,1,216.54,93ZM215,59.93a9,9,0,0,0-7,2.86,13.16,13.16,0,0,0-3.07,7.9h19q0-5.21-2.32-8A8.18,8.18,0,0,0,215,59.93Z" transform="translate(-3.51 -1.8)" fill="#fff"/>
    <path d="M254.33,55.31a21.57,21.57,0,0,1,4.35.4l-0.76,5.11a18.78,18.78,0,0,0-4-.5,9.7,9.7,0,0,0-7.55,3.59,13.08,13.08,0,0,0-3.14,8.93V92.37h-5.51V56h4.55l0.63,6.74h0.27a16,16,0,0,1,4.88-5.48A11,11,0,0,1,254.33,55.31Z" transform="translate(-3.51 -1.8)" fill="#fff"/>
    <path d="M302,92.37h-5.64V69.53H270.79V92.37h-5.64V43.83h5.64V64.48h25.57V43.83H302V92.37Z" transform="translate(-3.51 -1.8)" fill="#fff"/>
    <path d="M318,56V79.59q0,4.45,2,6.64t6.34,2.19q5.71,0,8.35-3.12t2.64-10.19V56h5.51V92.37h-4.55l-0.8-4.88h-0.3a11,11,0,0,1-4.7,4.12A15.8,15.8,0,0,1,325.66,93q-6.64,0-9.94-3.15t-3.3-10.09V56H318Z" transform="translate(-3.51 -1.8)" fill="#fff"/>
    <path d="M369.58,55.38q7.17,0,11.14,4.9t4,13.86q0,9-4,13.93t-11.11,5a15.75,15.75,0,0,1-6.49-1.31,12.2,12.2,0,0,1-4.93-4h-0.4l-1.16,4.68h-4V40.71h5.51V53.26q0,4.22-.27,7.57h0.27Q362,55.38,369.58,55.38ZM368.78,60q-5.65,0-8.13,3.24t-2.49,10.91q0,7.67,2.56,11t8.2,3.3q5.08,0,7.57-3.7T379,74.07q0-7.1-2.49-10.59T368.78,60Z" transform="translate(-3.51 -1.8)" fill="#fff"/>
  </g>
  <g>
    <g>
      <path d="M70.08,13.78s-3.27-.37-4.62-0.37c-2,0-3,.7-3,2.08s0.84,1.84,3.57,2.59c3.36,0.93,4.57,1.82,4.57,4.55,0,3.5-2.19,5-5.34,5A34,34,0,0,1,60.08,27l0.26-2.08s3.15,0.42,4.81.42c2,0,2.89-.89,2.89-2.57,0-1.35-.72-1.82-3.17-2.4-3.45-.89-4.95-1.94-4.95-4.71,0-3.22,2.12-4.55,5.32-4.55a35.42,35.42,0,0,1,5.06.56Z" transform="translate(-3.51 -1.8)" fill="#fff"/>
      <path d="M76.85,11.4h4.5l3.57,12.48L88.5,11.4H93v16H90.41V13.57H90.27l-4,13.16H83.57l-4-13.16H79.44V27.38H76.85v-16Z" transform="translate(-3.51 -1.8)" fill="#fff"/>
      <path d="M133.12,11.4h11.66v2.31h-4.5V27.38h-2.61V13.71h-4.55V11.4Z" transform="translate(-3.51 -1.8)" fill="#fff"/>
      <path d="M156.06,11.4c3.17,0,4.88,1.19,4.88,4.15,0,1.94-.61,2.89-1.89,3.59,1.38,0.54,2.29,1.52,2.29,3.71,0,3.27-2,4.53-5.09,4.53H150v-16h6.07Zm-3.48,2.24v4.57H156c1.59,0,2.29-.79,2.29-2.36s-0.79-2.22-2.38-2.22h-3.34Zm0,6.77v4.74h3.52c1.61,0,2.57-.51,2.57-2.43s-1.35-2.31-2.61-2.31h-3.48Z" transform="translate(-3.51 -1.8)" fill="#fff"/>
      <path d="M167.75,11.4h10.08v2.26h-7.49v4.53h6.09v2.22h-6.09V25.1h7.49v2.29H167.75v-16Z" transform="translate(-3.51 -1.8)" fill="#fff"/>
      <path d="M187.11,11.4h5.16l4,16h-2.61l-1.18-4.69h-5.5l-1.18,4.69h-2.59Zm0.34,9h4.48l-1.65-6.84h-1.17Z" transform="translate(-3.51 -1.8)" fill="#fff"/>
      <path d="M204.58,22.65v4.74H202v-16h6.07c3.52,0,5.41,2,5.41,5.56,0,2.26-.91,4.3-2.61,5.1l2.64,5.32h-2.85l-2.31-4.74h-3.76Zm3.48-9h-3.48v6.77h3.52c2,0,2.71-1.76,2.71-3.42C210.81,15.17,209.93,13.64,208.06,13.64Z" transform="translate(-3.51 -1.8)" fill="#fff"/>
      <path d="M102.61,11.4h5.16l4,16h-2.61l-1.18-4.69h-5.5l-1.18,4.69H98.67Zm0.34,9h4.48l-1.65-6.84h-1.17Z" transform="translate(-3.51 -1.8)" fill="#fff"/>
      <path d="M120.08,22.65v4.74h-2.59v-16h6.07c3.52,0,5.41,2,5.41,5.56,0,2.26-.91,4.3-2.61,5.1L129,27.38h-2.85l-2.31-4.74h-3.76Zm3.48-9h-3.48v6.77h3.52c2,0,2.71-1.76,2.71-3.42C126.31,15.17,125.43,13.64,123.56,13.64Z" transform="translate(-3.51 -1.8)" fill="#fff"/>
    </g>
    <path d="M31.94,24.22H24.53l-1.31,4h10Zm19.87,4-3.89-12,2.51-7.73L41.1,1.8,34.52,6.57H22L15.38,1.8,6,8.58l2.51,7.73-3.89,12H16.93l-1-2.93,12.26-8.91L40.5,25.33l-1,2.93H51.81Z" transform="translate(-3.51 -1.8)" fill="#fff"/>
  </g>
</svg>
